<svg width="100" height="107" viewBox="0 0 100 107" fill="none" xmlns="http://www.w3.org/2000/svg">
<circle cx="50" cy="57" r="49.5" stroke="black" stroke-opacity="0.1"/>
<path d="M41.3176 7.75961C29.6385 9.81895 19.0716 15.9625 11.5038 25.0932C3.93603 34.2239 -0.139974 45.7472 0.00366779 57.6056C0.14731 69.464 4.50124 80.8852 12.288 89.8299C20.0748 98.7747 30.7874 104.66 42.5129 106.436L42.7375 104.953C31.3637 103.231 20.9725 97.5214 13.4194 88.845C5.8662 80.1687 1.64289 69.0901 1.50356 57.5874C1.36423 46.0848 5.31795 34.9072 12.6587 26.0504C19.9995 17.1936 30.2494 11.2344 41.5781 9.23682L41.3176 7.75961Z" fill="#745670"/>
<path d="M15.7095 5.7H19.8895V19H18.2495V7.22H15.7095V5.7Z" fill="white"/>
<g clip-path="url(#clip0_185_240)">
<path d="M37.8556 54.912C37.8556 55.3756 38.0366 55.8107 38.3643 56.1374L38.977 56.7501C39.796 57.5682 40.8828 58.019 42.0406 58.019C43.1985 58.019 44.2861 57.5683 45.1051 56.7501L49.422 52.4333C51.1319 53.8615 53.2665 54.6389 55.5199 54.6389H55.5242C58.0713 54.6372 60.4686 53.6431 62.2721 51.8387C62.611 51.4999 62.611 50.9513 62.2721 50.6133C61.9332 50.2744 61.3855 50.2744 61.0467 50.6133C59.5699 52.0901 57.6078 52.9047 55.5234 52.9056H55.5208C53.4382 52.9056 51.4805 52.0945 50.0079 50.622C49.669 50.284 49.1205 50.284 48.7825 50.622L43.8789 55.5247C42.8978 56.5066 41.1844 56.5066 40.2025 55.5247L39.5898 54.912L50.0079 44.4939C50.9795 43.5223 51.9025 43.5223 53.0715 43.5223C54.323 43.5223 55.8821 43.5223 57.3615 42.043L59.8124 39.5912C60.1512 39.2524 60.1512 38.7038 59.8124 38.3658C59.4744 38.0268 58.9257 38.0268 58.5869 38.3658L56.1361 40.8176C55.1637 41.7891 54.2407 41.7891 53.0715 41.7891C51.8201 41.7891 50.2618 41.7891 48.7825 43.2684L38.3651 53.6856C38.0366 54.0133 37.8556 54.4484 37.8556 54.912Z" fill="#745670"/>
<path d="M31.8002 40.5358C32.7561 40.5358 33.5335 39.7584 33.5335 38.8024C33.5335 37.8465 32.7562 37.0691 31.8002 37.0691C30.8443 37.0691 30.0668 37.8464 30.0668 38.8024C30.0668 39.7584 30.8443 40.5358 31.8002 40.5358Z" fill="#745670"/>
<path d="M40.2024 43.2684L42.6533 45.7193C42.8231 45.8892 43.0451 45.9732 43.2661 45.9732C43.488 45.9732 43.7098 45.8891 43.8788 45.7193C44.2177 45.3813 44.2177 44.8326 43.8788 44.4938L41.4279 42.0429C41.0899 41.7041 40.5413 41.7041 40.2024 42.0429C39.8644 42.3809 39.8644 42.9295 40.2024 43.2684Z" fill="#745670"/>
<path d="M68.1998 37.0691C69.1549 37.0691 69.9332 36.2918 69.9332 35.3358C69.9332 34.3799 69.1549 33.6024 68.1998 33.6024C67.2448 33.6024 66.4665 34.3798 66.4665 35.3358C66.4665 36.2917 67.2448 37.0691 68.1998 37.0691Z" fill="#745670"/>
<path d="M70.1871 49.4563C68.7787 50.8647 68.2952 53.1586 67.828 55.3774C67.4138 57.3464 66.9848 59.384 65.9413 60.4274L64.715 61.6529C64.377 61.9918 64.377 62.5403 64.715 62.8783C64.8848 63.0482 65.1067 63.1322 65.3286 63.1322C65.5496 63.1322 65.7715 63.0481 65.9413 62.8783L67.1668 61.6529C68.5742 60.2454 69.0569 57.9523 69.5241 55.7345C69.9392 53.7636 70.3691 51.7261 71.4125 50.6819C71.7515 50.3439 71.7515 49.7952 71.4125 49.4564C71.0737 49.1174 70.526 49.1174 70.1871 49.4563Z" fill="#745670"/>
<path d="M75.7459 49.4564L61.6254 35.3359L64.4793 32.482C64.8182 32.1431 64.8182 31.5954 64.4793 31.2565C64.1403 30.9177 63.5926 30.9177 63.2538 31.2565L59.7872 34.7232C59.4483 35.0621 59.4483 35.6098 59.7872 35.9486L74.5205 50.6819C74.6895 50.8509 74.9114 50.9358 75.1332 50.9358C75.355 50.9358 75.5769 50.8509 75.7459 50.6819C76.0847 50.3429 76.0847 49.7952 75.7459 49.4564Z" fill="#745670"/>
<path d="M56.1359 56.7502C55.797 56.4122 55.2493 56.4122 54.9105 56.7502C54.5717 57.0891 54.5717 57.6376 54.9105 57.9765L64.1023 67.1684C64.7783 67.8444 64.7783 68.9442 64.1023 69.6202C63.4281 70.2944 62.3274 70.2952 61.6505 69.6202L52.4587 60.4275C52.1198 60.0886 51.5713 60.0886 51.2333 60.4275C50.8943 60.7664 50.8943 61.3149 51.2333 61.6529L62.8768 73.2965C63.5528 73.9725 63.5528 75.0723 62.8768 75.7474C62.2008 76.4225 61.1019 76.4243 60.425 75.7482L49.3951 64.7174C49.0562 64.3785 48.5076 64.3785 48.1696 64.7174C47.8307 65.0554 47.8307 65.604 48.1696 65.9428L57.9742 75.7474C58.6502 76.4234 58.6502 77.5232 57.9742 78.1992C57.319 78.8544 56.1785 78.8544 55.5233 78.1984L54.297 76.9729H54.2961L46.3306 69.0074C45.9917 68.6686 45.4431 68.6686 45.1051 69.0074C44.7663 69.3454 44.7663 69.8941 45.1051 70.2329L53.0714 78.1992C53.3991 78.5268 53.5793 78.9618 53.5793 79.4255C53.5793 79.8884 53.3991 80.3234 53.0714 80.651C52.3972 81.3253 51.2965 81.327 50.6205 80.6501L35.8796 65.9229C33.6323 63.6757 33.1444 60.8426 32.7137 58.3422C32.3514 56.2389 32.009 54.2524 30.6796 52.923C30.3407 52.5841 29.793 52.5841 29.4542 52.923C29.1153 53.2619 29.1152 53.8096 29.4542 54.1485C30.3945 55.0888 30.6779 56.7328 31.0055 58.6369C31.4561 61.2542 32.0178 64.5119 34.6541 67.1484L49.3951 81.8764C50.0702 82.5515 50.9577 82.8904 51.846 82.8904C52.7334 82.8895 53.6218 82.5515 54.2969 81.8764C54.7891 81.3833 55.1159 80.7688 55.2476 80.0998C56.5181 80.7125 58.1726 80.4534 59.1996 79.4247C59.6926 78.9316 60.0185 78.3163 60.1503 77.6472C61.439 78.266 63.0353 78.0398 64.1022 76.9729C65.4542 75.6218 65.4542 73.423 64.1022 72.071L63.7738 71.7417C64.3431 71.5901 64.8822 71.2911 65.3286 70.8456C66.6797 69.4936 66.6797 67.294 65.3286 65.9429L56.1359 56.7502Z" fill="#745670"/>
<path d="M40.2128 38.1897L35.0128 32.9898C34.674 32.6509 34.1262 32.6509 33.7874 32.9898C33.4485 33.3286 33.4485 33.8764 33.7874 34.2152L38.3746 38.8025L24.2541 52.923C23.9153 53.2619 23.9153 53.8096 24.2541 54.1484C24.4231 54.3174 24.645 54.4023 24.8668 54.4023C25.0886 54.4023 25.3106 54.3174 25.4796 54.1484L40.2128 39.4153C40.5517 39.0764 40.5517 38.5286 40.2128 38.1897Z" fill="#745670"/>
<path d="M45.3157 81.1084C44.833 81.3615 44.0088 81.3917 43.2661 80.6508C42.5233 79.9071 42.5294 79.0431 42.7703 78.6669C43.0095 78.2943 42.9298 77.802 42.584 77.5239C42.2399 77.2457 41.7416 77.2717 41.4279 77.5862C40.751 78.2622 39.6504 78.2613 38.9761 77.5862C38.301 76.9102 38.301 75.8104 38.9761 75.1344C39.146 74.9654 39.23 74.7435 39.23 74.5217C39.23 74.2999 39.1459 74.0788 38.9761 73.909C38.6381 73.571 38.0895 73.571 37.7506 73.909L37.1379 74.5217C36.4628 75.1977 35.3621 75.1977 34.687 74.5217C34.012 73.8457 34.012 72.7459 34.687 72.0708L35.2998 71.4581C35.6083 71.1505 35.6395 70.6616 35.3743 70.3167C35.1091 69.9718 34.6281 69.8774 34.2529 70.0948C33.7814 70.3669 32.952 70.3349 32.2362 69.6199C31.4753 68.859 31.4787 68.0158 31.724 67.6604C31.9961 67.2669 31.8964 66.727 31.503 66.4549C31.1086 66.1819 30.5696 66.2815 30.2974 66.6759C29.5964 67.6916 29.6154 69.45 31.0107 70.8454C31.5602 71.394 32.1582 71.7215 32.7475 71.8785C32.5499 72.3187 32.4459 72.7997 32.4459 73.2964C32.4459 74.222 32.8064 75.093 33.4616 75.7472C34.3508 76.6373 35.6083 76.9415 36.7497 76.6599C36.8173 77.4451 37.1509 78.212 37.7506 78.8118C38.613 79.6732 39.8176 79.9852 40.9287 79.7495C41.0362 80.4671 41.3837 81.2185 42.0406 81.8763C42.8422 82.6771 43.7782 82.9977 44.6328 82.9977C45.1814 82.9977 45.6961 82.8651 46.1199 82.6433C46.5438 82.4214 46.7076 81.8979 46.4849 81.4733C46.2629 81.0503 45.7378 80.8857 45.3157 81.1084Z" fill="#745670"/>
</g>
<defs>
<clipPath id="clip0_185_240">
<rect width="52" height="52" fill="white" transform="translate(24 31)"/>
</clipPath>
</defs>
</svg>
