<svg width="100" height="106" viewBox="0 0 100 106" fill="none" xmlns="http://www.w3.org/2000/svg">
<circle cx="50" cy="56" r="49.5" stroke="black" stroke-opacity="0.1"/>
<path d="M88.3022 88.1394C93.0042 82.5358 96.4194 75.9687 98.3069 68.9013C100.194 61.834 100.508 54.4386 99.2261 47.2368C97.944 40.035 95.0974 33.2023 90.8869 27.2205C86.6765 21.2387 81.2048 16.2537 74.8578 12.6169L74.1121 13.9184C80.2686 17.446 85.5762 22.2816 89.6603 28.0839C93.7444 33.8862 96.5057 40.514 97.7493 47.4997C98.9929 54.4855 98.6885 61.659 96.8577 68.5143C95.0268 75.3696 91.7141 81.7397 87.1532 87.1752L88.3022 88.1394Z" fill="#745670"/>
<path d="M14.2261 17.42H19.9061V19H10.9661V18.46C13.0328 16.3 14.5328 14.6733 15.4661 13.58C16.3994 12.4733 17.0128 11.6333 17.3061 11.06C17.5994 10.4867 17.7461 9.9 17.7461 9.3C17.7461 8.96667 17.6861 8.66 17.5661 8.38C17.4594 8.1 17.2994 7.86 17.0861 7.66C16.8861 7.46 16.6394 7.30667 16.3461 7.2C16.0528 7.09333 15.7328 7.04 15.3861 7.04C14.8928 7.04 14.4594 7.14 14.0861 7.34C13.7128 7.52667 13.4261 7.79333 13.2261 8.14C13.0261 8.48667 12.9261 8.88 12.9261 9.32V9.64H11.2861V9.32C11.2861 8.56 11.4528 7.88667 11.7861 7.3C12.1328 6.71333 12.6128 6.26 13.2261 5.94C13.8528 5.62 14.5728 5.46 15.3861 5.46C16.5728 5.46 17.5394 5.82 18.2861 6.54C19.0328 7.24667 19.4061 8.16667 19.4061 9.3C19.4061 9.95333 19.2861 10.5733 19.0461 11.16C18.8061 11.7467 18.3128 12.5333 17.5661 13.52C16.8328 14.4933 15.7194 15.7933 14.2261 17.42Z" fill="white"/>
<path d="M52.73 38.8L34.9417 57.6284C34.27 58.3434 33.62 59.7517 33.49 60.7267L32.6883 67.7467C32.4067 70.2817 34.2267 72.015 36.74 71.5817L43.7167 70.39C44.6917 70.2167 46.0567 69.5017 46.7283 68.765L64.5167 49.9367C67.5933 46.6867 68.98 42.9817 64.1917 38.4534C59.425 33.9684 55.8067 35.55 52.73 38.8Z" stroke="#745670" stroke-width="2" stroke-miterlimit="10" stroke-linecap="round" stroke-linejoin="round"/>
<path d="M49.7617 41.9417C50.6933 47.9216 55.5467 52.4933 61.57 53.1" stroke="#745670" stroke-width="2" stroke-miterlimit="10" stroke-linecap="round" stroke-linejoin="round"/>
<path d="M30.5 78.6667H69.5" stroke="#745670" stroke-width="2" stroke-miterlimit="10" stroke-linecap="round" stroke-linejoin="round"/>
</svg>
