<svg width="100" height="106" viewBox="0 0 100 106" fill="none" xmlns="http://www.w3.org/2000/svg">
<circle cx="50" cy="56" r="49.5" stroke="black" stroke-opacity="0.1"/>
<path d="M88.3022 88.1394C93.0042 82.5358 96.4194 75.9687 98.3069 68.9013C100.194 61.834 100.508 54.4386 99.2261 47.2368C97.944 40.035 95.0974 33.2023 90.8869 27.2205C86.6765 21.2387 81.2048 16.2537 74.8578 12.6169L74.1121 13.9184C80.2686 17.446 85.5762 22.2816 89.6603 28.0839C93.7444 33.8862 96.5057 40.514 97.7493 47.4997C98.9929 54.4855 98.6885 61.659 96.8577 68.5143C95.0268 75.3696 91.7141 81.7397 87.1532 87.1752L88.3022 88.1394Z" fill="#745670"/>
<path d="M15.3461 10.6C16.2128 10.6 16.9928 10.7867 17.6861 11.16C18.3928 11.5333 18.9394 12.0533 19.3261 12.72C19.7261 13.3733 19.9261 14.1 19.9261 14.9C19.9261 16.14 19.4994 17.1733 18.6461 18C17.7928 18.8267 16.7394 19.24 15.4861 19.24C14.2461 19.24 13.2128 18.8533 12.3861 18.08C11.5594 17.2933 11.1261 16.3067 11.0861 15.12H12.7061C12.7328 15.6133 12.8661 16.0533 13.1061 16.44C13.3594 16.8267 13.6928 17.1267 14.1061 17.34C14.5194 17.5533 14.9794 17.66 15.4861 17.66C16.2861 17.66 16.9461 17.4 17.4661 16.88C17.9861 16.36 18.2461 15.7 18.2461 14.9C18.2461 14.3667 18.1194 13.8867 17.8661 13.46C17.6128 13.02 17.2594 12.68 16.8061 12.44C16.3528 12.2 15.8461 12.08 15.2861 12.08H11.9061L11.6661 11.8L12.3461 5.7H19.0061V7.22H13.7061L13.3461 10.6H15.3461Z" fill="white"/>
<path d="M45.6667 39.7499V68.9999C45.6667 71.3399 44.7133 73.4849 43.1966 75.0449L43.11 75.1316C42.915 75.3266 42.6984 75.5216 42.5034 75.6733C41.8534 76.2366 41.1166 76.6699 40.3583 76.9732C40.12 77.0816 39.8817 77.1682 39.6433 77.2549C38.7983 77.5366 37.8883 77.6666 37 77.6666C36.415 77.6666 35.83 77.6016 35.2667 77.4932C34.985 77.4282 34.7033 77.3633 34.4217 77.2766C34.075 77.1683 33.75 77.0599 33.425 76.9082C33.425 76.8866 33.425 76.8866 33.4033 76.9082C32.7967 76.6049 32.2117 76.2583 31.67 75.8466L31.6483 75.8249C31.3667 75.6082 31.1067 75.3916 30.8684 75.1316C30.63 74.8716 30.3917 74.6116 30.1533 74.3299C29.7417 73.7883 29.395 73.2033 29.0917 72.5966C29.1134 72.5749 29.1134 72.5749 29.0917 72.5749C29.0917 72.5749 29.0917 72.5533 29.07 72.5316C28.94 72.2283 28.8317 71.9033 28.7233 71.5783C28.6367 71.2966 28.5716 71.0149 28.5066 70.7333C28.3983 70.1699 28.3333 69.5849 28.3333 68.9999V39.7499C28.3333 36.4999 30.5 34.3333 33.75 34.3333H40.25C43.5 34.3333 45.6667 36.4999 45.6667 39.7499Z" stroke="#745670" stroke-width="2" stroke-linecap="round" stroke-linejoin="round"/>
<path d="M71.6667 65.7499V72.2499C71.6667 75.4999 69.5 77.6666 66.25 77.6666H37C37.8883 77.6666 38.7983 77.5366 39.6433 77.2549C39.8817 77.1682 40.12 77.0816 40.3583 76.9732C41.1166 76.6699 41.8534 76.2366 42.5034 75.6733C42.6984 75.5216 42.915 75.3266 43.11 75.1316L43.1966 75.0449L57.93 60.3333H66.25C69.5 60.3333 71.6667 62.4999 71.6667 65.7499Z" stroke="#745670" stroke-width="2" stroke-linecap="round" stroke-linejoin="round"/>
<path d="M34.4217 77.2767C33.1217 76.8867 31.8867 76.1717 30.8684 75.1317C29.8284 74.1134 29.1133 72.8784 28.7233 71.5784C29.5683 74.2867 31.7133 76.4317 34.4217 77.2767Z" stroke="#745670" stroke-width="2" stroke-linecap="round" stroke-linejoin="round"/>
<path d="M63.8016 54.4616L57.93 60.3333L43.1966 75.045C44.7133 73.485 45.6667 71.34 45.6667 69V48.07L51.5383 42.1983C53.835 39.9017 56.9117 39.9017 59.2083 42.1983L63.8016 46.7917C66.0983 49.0883 66.0983 52.165 63.8016 54.4616Z" stroke="#745670" stroke-width="2" stroke-linecap="round" stroke-linejoin="round"/>
<path d="M37 71.1666C38.1966 71.1666 39.1667 70.1965 39.1667 68.9999C39.1667 67.8033 38.1966 66.8333 37 66.8333C35.8034 66.8333 34.8333 67.8033 34.8333 68.9999C34.8333 70.1965 35.8034 71.1666 37 71.1666Z" stroke="#745670" stroke-width="2" stroke-linecap="round" stroke-linejoin="round"/>
</svg>
