<svg width="100" height="107" viewBox="0 0 100 107" fill="none" xmlns="http://www.w3.org/2000/svg">
<circle cx="50" cy="57" r="49.5" stroke="black" stroke-opacity="0.1"/>
<path d="M100 57C100 67.0684 96.9603 76.9023 91.2788 85.2145C85.5973 93.5267 77.5387 99.9301 68.1577 103.586C58.7767 107.243 48.5103 107.982 38.7023 105.707C28.8943 103.432 20.0016 98.2488 13.1881 90.8361L14.2924 89.821C20.9015 97.0114 29.5274 102.039 39.0412 104.246C48.555 106.452 58.5134 105.736 67.613 102.189C76.7125 98.6422 84.5294 92.4309 90.0405 84.3681C95.5515 76.3052 98.5 66.7663 98.5 57H100Z" fill="#745670"/>
<path d="M14.4131 10.34C15.6398 10.34 16.6998 10.7533 17.5931 11.58C18.4865 12.3933 18.9331 13.4333 18.9331 14.7C18.9331 16.02 18.4865 17.1067 17.5931 17.96C16.6998 18.8133 15.5665 19.24 14.1931 19.24C12.7931 19.24 11.6465 18.8133 10.7531 17.96C9.85979 17.1067 9.41313 16.02 9.41313 14.7C9.41313 13.4867 9.89979 12.0133 10.8731 10.28L13.5331 5.58H15.3531C13.7398 8.44667 12.7798 10.18 12.4731 10.78C13.0865 10.4867 13.7331 10.34 14.4131 10.34ZM11.9531 16.82C12.5398 17.38 13.2798 17.66 14.1731 17.66C15.0665 17.66 15.8065 17.3867 16.3931 16.84C16.9798 16.28 17.2731 15.5667 17.2731 14.7C17.2731 14.14 17.1398 13.6333 16.8731 13.18C16.6065 12.7267 16.2331 12.38 15.7531 12.14C15.2865 11.8867 14.7598 11.76 14.1731 11.76C13.5865 11.76 13.0531 11.8867 12.5731 12.14C12.1065 12.3933 11.7398 12.7467 11.4731 13.2C11.2065 13.64 11.0731 14.14 11.0731 14.7C11.0731 15.5533 11.3665 16.26 11.9531 16.82Z" fill="white"/>
<path d="M50 60.3333H52.1667C54.55 60.3333 56.5 58.3833 56.5 55.9999V34.3333H37C33.75 34.3333 30.9117 36.1316 29.4384 38.7749" stroke="#745670" stroke-width="2" stroke-linecap="round" stroke-linejoin="round"/>
<path d="M28.3333 66.8333C28.3333 70.4299 31.2367 73.3333 34.8333 73.3333H37C37 70.9499 38.95 68.9999 41.3333 68.9999C43.7167 68.9999 45.6667 70.9499 45.6667 73.3333H54.3333C54.3333 70.9499 56.2833 68.9999 58.6667 68.9999C61.05 68.9999 63 70.9499 63 73.3333H65.1667C68.7633 73.3333 71.6667 70.4299 71.6667 66.8333V60.3333H65.1667C63.975 60.3333 63 59.3583 63 58.1666V51.6666C63 50.4749 63.975 49.4999 65.1667 49.4999H67.9616L64.2567 43.0216C63.4767 41.6783 62.0467 40.8333 60.4867 40.8333H56.5V55.9999C56.5 58.3833 54.55 60.3333 52.1667 60.3333H50" stroke="#745670" stroke-width="2" stroke-linecap="round" stroke-linejoin="round"/>
<path d="M41.3333 77.6667C43.7266 77.6667 45.6667 75.7266 45.6667 73.3333C45.6667 70.9401 43.7266 69 41.3333 69C38.9401 69 37 70.9401 37 73.3333C37 75.7266 38.9401 77.6667 41.3333 77.6667Z" stroke="#745670" stroke-width="2" stroke-linecap="round" stroke-linejoin="round"/>
<path d="M58.6667 77.6667C61.0599 77.6667 63 75.7266 63 73.3333C63 70.9401 61.0599 69 58.6667 69C56.2734 69 54.3333 70.9401 54.3333 73.3333C54.3333 75.7266 56.2734 77.6667 58.6667 77.6667Z" stroke="#745670" stroke-width="2" stroke-linecap="round" stroke-linejoin="round"/>
<path d="M71.6667 56V60.3333H65.1667C63.975 60.3333 63 59.3583 63 58.1667V51.6667C63 50.475 63.975 49.5 65.1667 49.5H67.9616L71.6667 56Z" stroke="#745670" stroke-width="2" stroke-linecap="round" stroke-linejoin="round"/>
<path d="M28.3333 47.3333H41.3333" stroke="#745670" stroke-width="2" stroke-linecap="round" stroke-linejoin="round"/>
<path d="M28.3333 53.8333H37" stroke="#745670" stroke-width="2" stroke-linecap="round" stroke-linejoin="round"/>
<path d="M28.3333 60.3333H32.6667" stroke="#745670" stroke-width="2" stroke-linecap="round" stroke-linejoin="round"/>
</svg>
