<svg width="100" height="106" viewBox="0 0 100 106" fill="none" xmlns="http://www.w3.org/2000/svg">
<circle cx="50" cy="56" r="49.5" stroke="black" stroke-opacity="0.1"/>
<path d="M88.3022 88.1394C93.0042 82.5358 96.4194 75.9687 98.3069 68.9013C100.194 61.834 100.508 54.4386 99.2261 47.2368C97.944 40.035 95.0974 33.2023 90.8869 27.2205C86.6765 21.2387 81.2048 16.2537 74.8578 12.6169L74.1121 13.9184C80.2686 17.446 85.5762 22.2816 89.6603 28.0839C93.7444 33.8862 96.5057 40.514 97.7493 47.4997C98.9929 54.4855 98.6885 61.659 96.8577 68.5143C95.0268 75.3696 91.7141 81.7397 87.1532 87.1752L88.3022 88.1394Z" fill="#745670"/>
<path d="M10.5395 5.7H19.5395V5.98L14.2995 19H12.5395L17.3195 7.22H10.5395V5.7Z" fill="white"/>
<path d="M40.2067 69.7583L46.9233 74.9583C47.79 75.825 49.74 76.2583 51.04 76.2583H59.2733C61.8733 76.2583 64.69 74.3083 65.34 71.7083L70.54 55.8917C71.6233 52.8583 69.6733 50.2583 66.4233 50.2583H57.7567C56.4567 50.2583 55.3733 49.175 55.59 47.6583L56.6733 40.725C57.1067 38.775 55.8067 36.6083 53.8567 35.9583C52.1233 35.3083 49.9567 36.175 49.09 37.475L40.2067 50.6917" stroke="#745670" stroke-width="2" stroke-miterlimit="10"/>
<path d="M29.1567 69.7584V48.5251C29.1567 45.4918 30.4567 44.4084 33.49 44.4084H35.6567C38.69 44.4084 39.99 45.4918 39.99 48.5251V69.7584C39.99 72.7918 38.69 73.8751 35.6567 73.8751H33.49C30.4567 73.8751 29.1567 72.7918 29.1567 69.7584Z" stroke="#745670" stroke-width="2" stroke-linecap="round" stroke-linejoin="round"/>
</svg>
