<svg width="70" height="70" viewBox="0 0 70 70" fill="none" xmlns="http://www.w3.org/2000/svg">
<path d="M64.1667 26.25V43.75C64.1667 51.0417 62.7083 56.1459 59.4417 59.4417L40.8333 40.8334L63.3792 18.2875C63.9042 20.5917 64.1667 23.2167 64.1667 26.25Z" stroke="#745670" stroke-width="3" stroke-linecap="round" stroke-linejoin="round"/>
<path d="M63.3792 18.2875L18.2874 63.3791C9.50828 61.3666 5.83331 55.3 5.83331 43.75V26.25C5.83331 11.6666 11.6666 5.83331 26.25 5.83331H43.75C55.3 5.83331 61.3667 9.50833 63.3792 18.2875Z" stroke="#745670" stroke-width="3" stroke-linecap="round" stroke-linejoin="round"/>
<path d="M59.4417 59.4417C56.1459 62.7083 51.0417 64.1667 43.75 64.1667H26.25C23.2167 64.1667 20.5916 63.9041 18.2875 63.3791L40.8333 40.8333L59.4417 59.4417Z" stroke="#745670" stroke-width="3" stroke-linecap="round" stroke-linejoin="round"/>
<path d="M18.2 23.275C20.1833 14.7291 33.0167 14.7291 35 23.275C36.1375 28.2916 32.9875 32.55 30.2166 35.175C28.2041 37.1 25.025 37.1 22.9833 35.175C20.2125 32.55 17.0333 28.2916 18.2 23.275Z" stroke="#745670" stroke-width="3"/>
<path d="M26.5259 25.375H26.5521" stroke="#745670" stroke-width="3" stroke-linecap="round" stroke-linejoin="round"/>
</svg>
