<svg width="19" height="19" viewBox="0 0 19 19" fill="none" xmlns="http://www.w3.org/2000/svg">
<path d="M9.38321 0.449341C6.89321 0.449341 6.58072 0.460228 5.60275 0.504733C4.62669 0.549429 3.96045 0.703954 3.37749 0.93068C2.77447 1.16485 2.26295 1.47811 1.75333 1.98791C1.24334 2.49751 0.930084 3.00903 0.695142 3.61185C0.467841 4.195 0.313123 4.86142 0.269191 5.83709C0.22545 6.81505 0.213989 7.12773 0.213989 9.6177C0.213989 12.1077 0.225068 12.4192 0.269382 13.3972C0.314269 14.3732 0.468796 15.0394 0.695333 15.6224C0.929702 16.2254 1.24296 16.7369 1.75276 17.2465C2.26218 17.7565 2.77371 18.0705 3.37634 18.3047C3.95968 18.5314 4.62612 18.686 5.60198 18.7307C6.57995 18.7752 6.89225 18.7861 9.38206 18.7861C11.8723 18.7861 12.1838 18.7752 13.1618 18.7307C14.1378 18.686 14.8048 18.5314 15.3882 18.3047C15.991 18.0705 16.5017 17.7565 17.0112 17.2465C17.5212 16.7369 17.8344 16.2254 18.0694 15.6226C18.2948 15.0394 18.4495 14.373 18.4953 13.3974C18.5392 12.4194 18.5507 12.1077 18.5507 9.6177C18.5507 7.12773 18.5392 6.81524 18.4953 5.83728C18.4495 4.86123 18.2948 4.195 18.0694 3.61204C17.8344 3.00903 17.5212 2.49751 17.0112 1.98791C16.5012 1.47792 15.9912 1.16466 15.3876 0.93068C14.8031 0.703954 14.1365 0.549429 13.1604 0.504733C12.1825 0.460228 11.8711 0.449341 9.38034 0.449341H9.38321ZM8.56072 2.10156C8.80483 2.10117 9.07721 2.10156 9.38321 2.10156C11.8312 2.10156 12.1213 2.11034 13.088 2.15427C13.982 2.19515 14.4671 2.34452 14.7903 2.47001C15.2182 2.63619 15.5232 2.83483 15.8439 3.15573C16.1648 3.47662 16.3635 3.78223 16.53 4.21009C16.6555 4.53289 16.8051 5.01805 16.8458 5.91196C16.8897 6.87846 16.8992 7.16879 16.8992 9.6156C16.8992 12.0624 16.8897 12.3527 16.8458 13.3192C16.8049 14.2131 16.6555 14.6983 16.53 15.0211C16.3638 15.449 16.1648 15.7536 15.8439 16.0743C15.523 16.3952 15.2184 16.5939 14.7903 16.76C14.4675 16.8861 13.982 17.0351 13.088 17.076C12.1215 17.1199 11.8312 17.1294 9.38321 17.1294C6.93504 17.1294 6.6449 17.1199 5.67839 17.076C4.78446 17.0347 4.2993 16.8853 3.97592 16.7598C3.54806 16.5937 3.24244 16.395 2.92155 16.0741C2.60065 15.7532 2.402 15.4484 2.23544 15.0203C2.10995 14.6975 1.96039 14.2124 1.9197 13.3185C1.87577 12.352 1.86698 12.0616 1.86698 9.61331C1.86698 7.16497 1.87577 6.87617 1.9197 5.90967C1.96058 5.01576 2.10995 4.5306 2.23544 4.20741C2.40162 3.77956 2.60065 3.47394 2.92155 3.15305C3.24244 2.83216 3.54806 2.63351 3.97592 2.46695C4.29911 2.34089 4.78446 2.1919 5.67839 2.15084C6.52418 2.11263 6.85195 2.10117 8.56072 2.09926V2.10156ZM14.2773 3.62388C13.6698 3.62388 13.177 4.11611 13.177 4.72371C13.177 5.33111 13.6698 5.82391 14.2773 5.82391C14.8847 5.82391 15.3775 5.33111 15.3775 4.72371C15.3775 4.1163 14.8847 3.6235 14.2773 3.6235V3.62388ZM9.38321 4.90936C6.78299 4.90936 4.67482 7.01751 4.67482 9.6177C4.67482 12.2179 6.78299 14.3251 9.38321 14.3251C11.9834 14.3251 14.0908 12.2179 14.0908 9.6177C14.0908 7.01751 11.9832 4.90936 9.38302 4.90936H9.38321ZM9.38321 6.56158C11.071 6.56158 12.4394 7.92977 12.4394 9.6177C12.4394 11.3054 11.071 12.6738 9.38321 12.6738C7.69526 12.6738 6.32706 11.3054 6.32706 9.6177C6.32706 7.92977 7.69526 6.56158 9.38321 6.56158Z" fill="white"/>
</svg>
