<svg width="70" height="70" viewBox="0 0 70 70" fill="none" xmlns="http://www.w3.org/2000/svg">
<path d="M62.6208 55.4167V14.5833C62.6208 8.75 59.7042 5.83333 53.8708 5.83333H42.2042C36.3708 5.83333 33.4542 8.75 33.4542 14.5833V55.4167C33.4542 61.25 36.3708 64.1667 42.2042 64.1667H53.8708C59.7042 64.1667 62.6208 61.25 62.6208 55.4167Z" stroke="#745670" stroke-width="3" stroke-linecap="round"/>
<path d="M33.4542 17.5H48.0375" stroke="#745670" stroke-width="3" stroke-linecap="round"/>
<path d="M33.4542 52.5H45.1208" stroke="#745670" stroke-width="3" stroke-linecap="round"/>
<path d="M33.4542 40.6875L48.0375 40.8333" stroke="#745670" stroke-width="3" stroke-linecap="round"/>
<path d="M33.4542 29.1667H42.2042" stroke="#745670" stroke-width="3" stroke-linecap="round"/>
<path d="M16.0125 5.83333C11.2583 5.83333 7.37915 9.71249 7.37915 14.4375V52.2375C7.37915 53.55 7.93332 55.5333 8.60415 56.6708L10.9958 60.6375C13.7375 65.2167 18.2583 65.2167 21 60.6375L23.3917 56.6708C24.0625 55.5333 24.6166 53.55 24.6166 52.2375V14.4375C24.6166 9.71249 20.7375 5.83333 16.0125 5.83333Z" stroke="#745670" stroke-width="3" stroke-linecap="round"/>
<path d="M24.6166 20.4167H7.37915" stroke="#745670" stroke-width="3" stroke-linecap="round"/>
</svg>
