<svg width="70" height="70" viewBox="0 0 70 70" fill="none" xmlns="http://www.w3.org/2000/svg">
<path d="M52.5 20.8834C52.325 20.8542 52.1209 20.8542 51.9459 20.8834C47.9209 20.7375 44.7125 17.4417 44.7125 13.3583C44.7125 9.18752 48.0667 5.83334 52.2375 5.83334C56.4084 5.83334 59.7625 9.21668 59.7625 13.3583C59.7333 17.4417 56.525 20.7375 52.5 20.8834Z" stroke="#745670" stroke-width="3" stroke-linecap="round" stroke-linejoin="round"/>
<path d="M49.4958 42.1167C53.4917 42.7875 57.8958 42.0875 60.9875 40.0167C65.1 37.275 65.1 32.7834 60.9875 30.0417C57.8667 27.9709 53.4042 27.2708 49.4083 27.9708" stroke="#745670" stroke-width="3" stroke-linecap="round" stroke-linejoin="round"/>
<path d="M17.4125 20.8834C17.5875 20.8542 17.7917 20.8542 17.9667 20.8834C21.9917 20.7375 25.2 17.4417 25.2 13.3583C25.2 9.18752 21.8459 5.83334 17.675 5.83334C13.5042 5.83334 10.15 9.21668 10.15 13.3583C10.1792 17.4417 13.3875 20.7375 17.4125 20.8834Z" stroke="#745670" stroke-width="3" stroke-linecap="round" stroke-linejoin="round"/>
<path d="M20.4167 42.1167C16.4208 42.7875 12.0167 42.0875 8.92501 40.0167C4.81251 37.275 4.81251 32.7834 8.92501 30.0417C12.0458 27.9709 16.5083 27.2708 20.5042 27.9708" stroke="#745670" stroke-width="3" stroke-linecap="round" stroke-linejoin="round"/>
<path d="M35 42.6709C34.825 42.6417 34.6208 42.6417 34.4458 42.6709C30.4208 42.525 27.2125 39.2292 27.2125 35.1459C27.2125 30.975 30.5666 27.6208 34.7375 27.6208C38.9083 27.6208 42.2625 31.0042 42.2625 35.1459C42.2333 39.2292 39.025 42.5542 35 42.6709Z" stroke="#745670" stroke-width="3" stroke-linecap="round" stroke-linejoin="round"/>
<path d="M26.5125 51.8584C22.4 54.6 22.4 59.0917 26.5125 61.8334C31.1791 64.9542 38.8208 64.9542 43.4875 61.8334C47.6 59.0917 47.6 54.6 43.4875 51.8584C38.85 48.7667 31.1791 48.7667 26.5125 51.8584Z" stroke="#745670" stroke-width="3" stroke-linecap="round" stroke-linejoin="round"/>
</svg>
