<svg width="35" height="35" viewBox="0 0 35 35" fill="none" xmlns="http://www.w3.org/2000/svg">
<path d="M32.0395 26.7311C32.0395 27.2561 31.9229 27.7957 31.675 28.3207C31.427 28.8457 31.1062 29.3415 30.6833 29.8082C29.9687 30.5957 29.1812 31.1644 28.2916 31.529C27.4166 31.8936 26.4687 32.0832 25.4479 32.0832C23.9604 32.0832 22.3708 31.7332 20.6937 31.0186C19.0166 30.304 17.3395 29.3415 15.677 28.1311C14 26.9061 12.4104 25.5498 10.8937 24.0478C9.39163 22.5311 8.03538 20.9415 6.82496 19.279C5.62913 17.6165 4.66663 15.954 3.96663 14.3061C3.26663 12.6436 2.91663 11.054 2.91663 9.53734C2.91663 8.54567 3.09163 7.59775 3.44163 6.72275C3.79163 5.83317 4.34579 5.0165 5.11871 4.28734C6.05204 3.36859 7.07288 2.9165 8.15204 2.9165C8.56038 2.9165 8.96871 3.004 9.33329 3.179C9.71246 3.354 10.0479 3.6165 10.3104 3.99567L13.6937 8.76442C13.9562 9.129 14.1458 9.46442 14.277 9.78525C14.4083 10.0915 14.4812 10.3978 14.4812 10.6748C14.4812 11.0248 14.3791 11.3748 14.175 11.7103C13.9854 12.0457 13.7083 12.3957 13.3583 12.7457L12.25 13.8978C12.0895 14.0582 12.0166 14.2478 12.0166 14.4811C12.0166 14.5978 12.0312 14.6998 12.0604 14.8165C12.1041 14.9332 12.1479 15.0207 12.177 15.1082C12.4395 15.5894 12.8916 16.2165 13.5333 16.9748C14.1895 17.7332 14.8895 18.5061 15.6479 19.279C16.4354 20.0519 17.1937 20.7665 17.9666 21.4228C18.725 22.0644 19.352 22.5019 19.8479 22.7644C19.9208 22.7936 20.0083 22.8373 20.1104 22.8811C20.227 22.9248 20.3437 22.9394 20.475 22.9394C20.7229 22.9394 20.9125 22.8519 21.0729 22.6915L22.1812 21.5978C22.5458 21.2332 22.8958 20.9561 23.2312 20.7811C23.5666 20.5769 23.902 20.4748 24.2666 20.4748C24.5437 20.4748 24.8354 20.5332 25.1562 20.6644C25.477 20.7957 25.8125 20.9853 26.177 21.2332L31.0041 24.6603C31.3833 24.9228 31.6458 25.229 31.8062 25.5936C31.952 25.9582 32.0395 26.3228 32.0395 26.7311Z" stroke="#FED460" stroke-width="2" stroke-miterlimit="10"/>
<path d="M26.9792 13.1247C26.9792 12.2497 26.2937 10.908 25.2729 9.81426C24.3396 8.80801 23.1 8.02051 21.875 8.02051" stroke="#FED460" stroke-width="2" stroke-linecap="round" stroke-linejoin="round"/>
<path d="M32.0833 13.1248C32.0833 7.48109 27.5188 2.9165 21.875 2.9165" stroke="#FED460" stroke-width="2" stroke-linecap="round" stroke-linejoin="round"/>
</svg>
