<svg width="67" height="67" viewBox="0 0 67 67" fill="none" xmlns="http://www.w3.org/2000/svg">
<g clip-path="url(#clip0_1_6994)">
<path d="M66.6594 17.2932C66.2053 16.8391 65.5241 16.8391 65.07 17.2932C61.1505 21.0009 57.9228 21.4453 54.5571 18.5372L55.6468 17.6337C58.5987 14.5683 58.5987 9.68643 55.6468 6.73467C52.6949 3.78278 47.813 3.78278 44.7477 6.84823L43.874 7.90467L42.704 6.73467C39.6387 3.78278 34.7567 3.78278 31.805 6.73467C30.3291 8.21055 29.5343 10.1407 29.5343 12.1842C29.5343 14.2278 30.3291 16.1579 31.805 17.6337L34.0475 19.7867L18.0241 39.1617L14.2073 35.3449C11.142 32.3931 6.26001 32.3931 3.30825 35.3449C1.83224 36.8208 1.03746 38.7509 1.03746 40.7945C1.03746 42.838 1.83224 44.7681 3.30812 46.244L8.17377 51.0725L0.242803 60.6627C-0.097744 61.1168 -0.097744 61.6844 0.356362 62.1385C0.583481 62.3657 0.810468 62.4791 1.15115 62.4791C1.37826 62.4791 1.71881 62.3655 1.83237 62.252L11.425 54.2986L18.1811 61.0032C18.4082 61.2303 18.6352 61.3437 18.9759 61.3437C19.203 61.3437 19.5436 61.2302 19.7707 61.1166C20.2248 60.6625 20.2248 59.9813 19.7707 59.5272L13.1292 52.8857L27.4638 41.0005L30.8967 44.5408C32.3726 46.0166 34.3027 46.6979 36.1193 46.6979C38.2764 46.6979 40.3201 45.7897 41.9095 44.5408C44.8614 41.4753 44.8614 36.5934 41.9095 33.6417L39.3283 31.1637L52.8077 19.9877C54.7942 21.7936 56.8666 22.7426 58.9395 22.7426C61.4371 22.7426 64.0485 21.4937 66.6597 18.8825C67.1135 18.4285 67.1135 17.7473 66.6594 17.2932ZM33.3943 16.0443C32.3725 15.0225 31.8048 13.6601 31.8048 12.1842C31.8048 10.7083 32.3725 9.34588 33.3943 8.32411C35.5514 6.167 38.9574 6.167 41.1145 8.32411L42.4349 9.64456L35.4836 18.05L33.3943 16.0443ZM4.89756 44.6546C3.87578 43.6328 3.30812 42.2704 3.30812 40.7945C3.30812 39.3186 3.87578 37.9562 4.89756 36.9344C7.05466 34.7773 10.4607 34.7773 12.6178 36.9344L16.5851 40.9018L9.59588 49.353L4.89756 44.6546ZM9.666 52.8289L9.7912 52.6775L9.81737 52.7034L9.666 52.8289ZM11.2073 50.9642L44.0359 11.2455L46.8479 14.0575L45.7693 15.1361C45.3152 15.5902 45.3152 16.2714 45.7693 16.7255C45.9965 16.9527 46.2235 17.0661 46.5641 17.0661C46.9048 17.0661 47.1318 16.9525 47.3589 16.7255L51.1055 12.979C51.5596 12.5249 51.5596 11.8437 51.1055 11.3896C50.6513 10.9354 49.9701 10.9354 49.516 11.3896L48.4375 12.4681L45.4745 9.5051L46.4506 8.32411C47.4723 7.30233 48.8348 6.73467 50.3107 6.73467C51.7865 6.73467 53.0354 7.30233 54.0572 8.32411C55.079 9.34588 55.6466 10.7083 55.6466 12.1842C55.6466 13.6601 55.079 15.0225 54.1708 15.9307L11.5281 51.2851L11.2073 50.9642ZM40.3198 35.3449C42.3634 37.502 42.3634 40.908 40.3198 42.9516C38.2763 44.6546 34.7567 45.1087 32.5996 42.9516L29.205 39.557L37.5844 32.6094L40.3198 35.3449Z" fill="#745670"/>
</g>
<defs>
<clipPath id="clip0_1_6994">
<rect width="67" height="67" fill="white"/>
</clipPath>
</defs>
</svg>
