<svg width="72" height="52" viewBox="0 0 72 52" fill="none" xmlns="http://www.w3.org/2000/svg">
<path d="M17.4653 52C14.495 52 11.8218 51.4564 9.44551 50.3693C7.18808 49.1614 5.40581 47.5308 4.09888 45.4774C2.91076 43.6655 1.90086 41.3705 1.06917 38.5923C0.356302 35.6934 0 32.6132 0 29.3519C0 23.3124 1.48512 17.6957 4.45542 12.5017C7.54454 7.187 12.297 3.01975 18.7129 0L20.3167 3.26133C17.1088 4.71081 14.2573 6.88502 11.7623 9.78398C9.26723 12.5621 7.66334 15.5215 6.95047 18.662C6.11878 21.6818 6.00001 24.5807 6.59407 27.3589C9.44556 24.0976 13.3662 22.4669 18.3564 22.4669C22.7524 22.4669 26.3168 23.7352 29.0495 26.2718C31.7821 28.8084 33.1485 32.4321 33.1485 37.1429C33.1485 41.6121 31.6634 45.2358 28.6931 48.0139C25.8416 50.6713 22.099 52 17.4653 52ZM56.3168 52C53.3465 52 50.6733 51.4564 48.297 50.3693C46.0396 49.1614 44.2575 47.5308 42.9505 45.4774C41.7624 43.6655 40.7525 41.3705 39.9208 38.5923C39.208 35.6934 38.8515 32.6132 38.8515 29.3519C38.8515 23.3124 40.3366 17.6957 43.3069 12.5017C46.396 7.187 51.1486 3.01975 57.5644 0L59.1684 3.26133C55.9605 4.71081 53.109 6.88502 50.6139 9.78398C48.1189 12.5621 46.5149 15.5215 45.802 18.662C44.9703 21.6818 44.8515 24.5807 45.4456 27.3589C48.2971 24.0976 52.2179 22.4669 57.208 22.4669C61.6041 22.4669 65.1683 23.7352 67.901 26.2718C70.6336 28.8084 72 32.4321 72 37.1429C72 41.6121 70.5149 45.2358 67.5446 48.0139C64.6931 50.6713 60.9505 52 56.3168 52Z" fill="#E6B738"/>
</svg>
