<svg width="70" height="70" viewBox="0 0 70 70" fill="none" xmlns="http://www.w3.org/2000/svg">
<path d="M25.2875 40.8333H11.6667C8.45833 40.8333 5.83333 43.4583 5.83333 46.6667V64.1667H25.2875V40.8333Z" stroke="#745670" stroke-width="3" stroke-miterlimit="10" stroke-linecap="round" stroke-linejoin="round"/>
<path d="M38.8792 29.1667H31.0917C27.8833 29.1667 25.2583 31.7917 25.2583 35V64.1667H44.7125V35C44.7125 31.7917 42.1167 29.1667 38.8792 29.1667Z" stroke="#745670" stroke-width="3" stroke-miterlimit="10" stroke-linecap="round" stroke-linejoin="round"/>
<path d="M58.3333 49.5833H44.7125V64.1667H64.1667V55.4167C64.1667 52.2083 61.5417 49.5833 58.3333 49.5833Z" stroke="#745670" stroke-width="3" stroke-miterlimit="10" stroke-linecap="round" stroke-linejoin="round"/>
<path d="M36.5167 6.03752L38.0625 9.12918C38.2667 9.56668 38.8208 9.975 39.2875 10.0333L42.0875 10.5C43.8667 10.7917 44.3042 12.1041 43.0208 13.3583L40.8333 15.5458C40.4542 15.925 40.25 16.625 40.3667 17.1208L40.9792 19.8042C41.475 21.9334 40.3375 22.75 38.4708 21.6417L35.8458 20.0959C35.3792 19.8042 34.5917 19.8042 34.125 20.0959L31.5 21.6417C29.6333 22.75 28.4958 21.9334 28.9917 19.8042L29.6042 17.1208C29.7208 16.625 29.5167 15.8958 29.1375 15.5458L26.9792 13.3875C25.6958 12.1042 26.1042 10.8208 27.9125 10.5291L30.7125 10.0625C31.1792 9.97503 31.7333 9.56671 31.9375 9.15837L33.4833 6.06662C34.3292 4.37496 35.6708 4.37502 36.5167 6.03752Z" stroke="#745670" stroke-width="3" stroke-linecap="round" stroke-linejoin="round"/>
</svg>
