<svg width="70" height="70" viewBox="0 0 70 70" fill="none" xmlns="http://www.w3.org/2000/svg">
<path d="M6.03752 13.4167C8.37085 3.32501 23.5667 3.32501 25.8709 13.4167C27.2417 19.3375 23.4792 24.3542 20.2125 27.475C17.8209 29.75 14.0584 29.7209 11.6667 27.475C8.42919 24.3542 4.66669 19.3375 6.03752 13.4167Z" stroke="#745670" stroke-width="3"/>
<path d="M43.9542 48.4167C46.2875 38.325 61.5708 38.325 63.9041 48.4167C65.275 54.3375 61.5125 59.3542 58.2166 62.475C55.825 64.75 52.0333 64.7208 49.6417 62.475C46.3458 59.3542 42.5833 54.3375 43.9542 48.4167Z" stroke="#745670" stroke-width="3"/>
<path d="M35 14.5833H42.8167C48.2125 14.5833 50.7208 21.2625 46.6667 24.8208L23.3625 45.2083C19.3083 48.7375 21.8167 55.4167 27.1833 55.4167H35" stroke="#745670" stroke-width="3" stroke-linecap="round" stroke-linejoin="round"/>
<path d="M16.0015 16.0417H16.0352" stroke="#745670" stroke-width="3" stroke-linecap="round" stroke-linejoin="round"/>
<path d="M53.9182 51.0417H53.9519" stroke="#745670" stroke-width="3" stroke-linecap="round" stroke-linejoin="round"/>
</svg>
