<svg width="70" height="70" viewBox="0 0 70 70" fill="none" xmlns="http://www.w3.org/2000/svg">
<path d="M5.83331 29.1083V26.25C5.83331 11.6667 11.6666 5.83333 26.25 5.83333H43.75C58.3333 5.83333 64.1666 11.6667 64.1666 26.25V43.75C64.1666 58.3333 58.3333 64.1667 43.75 64.1667H40.8333" stroke="#745670" stroke-width="3" stroke-linecap="round" stroke-linejoin="round"/>
<path d="M37.9167 32.0833L52.5292 17.4417H40.8334" stroke="#745670" stroke-width="3" stroke-linecap="round" stroke-linejoin="round"/>
<path d="M52.5292 17.4417V29.1375" stroke="#745670" stroke-width="3" stroke-linecap="round" stroke-linejoin="round"/>
<path d="M32.0833 47.1042V54.9792C32.0833 61.5417 29.4583 64.1667 22.8958 64.1667H15.0208C8.45831 64.1667 5.83331 61.5417 5.83331 54.9792V47.1042C5.83331 40.5417 8.45831 37.9167 15.0208 37.9167H22.8958C29.4583 37.9167 32.0833 40.5417 32.0833 47.1042Z" stroke="#745670" stroke-width="3" stroke-linecap="round" stroke-linejoin="round"/>
</svg>
