<svg width="21" height="21" viewBox="0 0 21 21" fill="none" xmlns="http://www.w3.org/2000/svg">
<path d="M0.910921 10.2439C0.910321 11.9829 1.36675 13.6808 2.23438 15.1771L0.827637 20.2901L6.0839 18.9181C7.53217 19.7043 9.16261 20.1187 10.822 20.1194H10.8262C16.2906 20.1194 20.7391 15.6921 20.7414 10.2516C20.7423 7.61467 19.7118 5.13541 17.8399 3.27031C15.9678 1.40521 13.4785 0.377481 10.8262 0.376343C5.36076 0.376343 0.913041 4.80279 0.910754 10.2436L0.910921 10.2439ZM4.04091 14.9193L3.8447 14.609C3.01963 13.3032 2.58418 11.7939 2.58478 10.2443C2.58658 5.72229 6.2834 2.04301 10.8291 2.04301C13.0305 2.04387 15.0994 2.89823 16.6556 4.44833C18.2116 5.99854 19.0679 8.05931 19.0673 10.2508C19.0652 14.7731 15.3684 18.4527 10.826 18.4527H10.8228C9.34379 18.4518 7.89329 18.0566 6.62831 17.3093L6.32724 17.1316L3.20795 17.9458L4.04091 14.9193ZM10.8262 20.1194H10.8263H10.8262C10.826 20.1194 10.8261 20.1194 10.8262 20.1194Z" fill="white"/>
<path fill-rule="evenodd" clip-rule="evenodd" d="M8.12773 6.46241C7.92845 6.08535 7.71877 6.07781 7.52924 6.07117C7.37412 6.06556 7.19671 6.06592 7.01951 6.06592C6.8421 6.06592 6.55395 6.12259 6.31029 6.34916C6.06641 6.57574 5.37927 7.12344 5.37927 8.23736C5.37927 9.35137 6.3325 10.4278 6.4653 10.579C6.59833 10.7299 8.30539 13.089 11.0087 13.9964C13.2555 14.7506 13.7128 14.6006 14.2004 14.5628C14.6881 14.5252 15.7741 14.0153 15.9957 13.4866C16.2174 12.958 16.2174 12.5048 16.1509 12.4102C16.0844 12.3159 15.907 12.2592 15.6411 12.146C15.375 12.0328 14.0674 11.485 13.8236 11.4095C13.5797 11.334 13.4024 11.2963 13.225 11.523C13.0477 11.7494 12.5383 12.2592 12.3831 12.4102C12.228 12.5615 12.0727 12.5804 11.8068 12.4672C11.5407 12.3536 10.684 12.1147 9.66781 11.3435C8.87709 10.7434 8.34331 10.0023 8.18808 9.77556C8.03296 9.54917 8.17152 9.42653 8.30488 9.31364C8.42438 9.21219 8.57095 9.04929 8.70398 8.91715C8.83669 8.78492 8.88096 8.69057 8.96962 8.53954C9.05838 8.38842 9.014 8.2562 8.94754 8.14294C8.88096 8.0297 8.36408 6.91006 8.12757 6.46234" fill="white"/>
<defs>
<linearGradient id="paint0_linear_112_241" x1="10.7847" y1="20.2907" x2="10.7847" y2="0.376941" gradientUnits="userSpaceOnUse">
<stop stop-color="#F9F9F9"/>
<stop offset="1" stop-color="white"/>
</linearGradient>
</defs>
</svg>
