<svg width="17" height="18" viewBox="0 0 17 18" fill="none" xmlns="http://www.w3.org/2000/svg">
<path d="M14.7892 2.21065C14.3588 1.82556 12.6372 0.557039 8.76365 0.534387C8.76365 0.534387 4.21054 0.262557 1.99062 2.30126C0.744743 3.54714 0.314349 5.33667 0.269044 7.57924C0.22374 9.82182 0.155789 14.0125 4.21054 15.1678V16.912C4.21054 16.912 4.18789 17.6142 4.64094 17.7501C5.20724 17.9313 5.52437 17.3877 6.06803 16.8214C6.36251 16.5042 6.77025 16.0512 7.06472 15.6888C9.8283 15.9153 11.9576 15.3943 12.2068 15.3037C12.7731 15.1224 15.9218 14.7147 16.4428 10.524C16.9864 6.1748 16.2162 3.43388 14.7892 2.21065ZM15.2648 10.1843C14.8345 13.6954 12.2748 13.9219 11.7991 14.0578C11.5952 14.1257 9.7377 14.5788 7.38186 14.4429C7.38186 14.4429 5.63763 16.5495 5.07133 17.1158C4.98072 17.2065 4.89011 17.2291 4.82215 17.2291C4.73154 17.2065 4.70889 17.0932 4.70889 16.9346C4.70889 16.7081 4.73154 14.0351 4.73154 14.0351C1.31105 13.0837 1.51492 9.50468 1.53757 7.62454C1.58288 5.74441 1.92267 4.2267 2.96467 3.1847C4.84481 1.48578 8.71834 1.73495 8.71834 1.73495C11.9803 1.75761 13.5433 2.73165 13.9057 3.07144C15.0836 4.11344 15.6952 6.58254 15.2648 10.1843Z" fill="white"/>
<path d="M10.3494 7.48858C10.3041 6.62776 9.87369 6.1747 9.03552 6.12939" stroke="white" stroke-width="0.3" stroke-linecap="round" stroke-linejoin="round"/>
<path d="M11.4822 7.8515C11.5049 7.05864 11.2557 6.37905 10.78 5.85803C10.2816 5.31435 9.60203 5.01986 8.74121 4.9519" stroke="white" stroke-width="0.3" stroke-linecap="round" stroke-linejoin="round"/>
<path d="M12.6148 8.30458C12.6148 6.92274 12.1844 5.83539 11.3688 5.04253C10.5533 4.24967 9.53394 3.84192 8.31067 3.84192" stroke="white" stroke-width="0.3" stroke-linecap="round" stroke-linejoin="round"/>
<path d="M9.08081 10.4112C9.08081 10.4112 9.39793 10.4338 9.5565 10.2299L9.87364 9.8222C10.0322 9.61833 10.3946 9.48242 10.7797 9.68629C10.9836 9.79955 11.346 10.0261 11.5726 10.2073C11.8217 10.3885 12.3201 10.7962 12.3201 10.7962C12.5693 11.0001 12.6146 11.2946 12.456 11.6117C12.2974 11.9062 12.0709 12.178 11.7764 12.4272C11.5499 12.6311 11.3234 12.7217 11.0969 12.767H11.0062C10.9156 12.767 10.8024 12.7443 10.7118 12.7217C10.372 12.6311 9.80568 12.3819 8.83163 11.8609C8.22002 11.5211 7.69902 11.1587 7.26863 10.8189C7.0421 10.6377 6.79293 10.4338 6.5664 10.1846L6.4758 10.094C6.22662 9.84485 6.02275 9.61833 5.84153 9.39181C5.50174 8.96142 5.13931 8.44041 4.79952 7.8288C4.27852 6.8774 4.02935 6.3111 3.93874 5.94866C3.91609 5.85805 3.89343 5.76745 3.89343 5.65419V5.56357C3.91608 5.33705 4.02935 5.11053 4.23322 4.884C4.48239 4.61218 4.75422 4.38565 5.0487 4.20443C5.36583 4.04587 5.66031 4.09117 5.86418 4.34035C5.86418 4.34035 6.27192 4.8387 6.45314 5.08788C6.61171 5.3144 6.83823 5.67684 6.97414 5.88071C7.17801 6.24314 7.0421 6.62823 6.86088 6.7868L6.45314 7.10393C6.24927 7.26249 6.27192 7.57963 6.27192 7.57963C6.27192 7.57963 6.83823 9.8222 9.08081 10.4112Z" fill="white"/>
</svg>
